<svg width="80" height="138" viewBox="0 0 80 138" fill="none" xmlns="http://www.w3.org/2000/svg">
<g filter="url(#filter0_d)">
<ellipse cx="39.7719" cy="133.871" rx="37.4345" ry="1.07615" fill="#C4C4C4" fill-opacity="0.01"/>
</g>
<g filter="url(#filter1_d)">
<path d="M17.0542 134.332H62.4903C63.8366 134.332 65.1204 134.065 66.2916 133.581C66.2916 133.581 50.5337 125.646 39.8491 125.723C29.1645 125.8 13.2529 133.581 13.2529 133.581C14.4241 134.065 15.708 134.332 17.0542 134.332Z" fill="#C4C4C4" fill-opacity="0.01"/>
</g>
<g filter="url(#filter2_d)">
<path d="M7.10303 12.2251C7.10303 6.72949 11.5581 2.27441 17.0537 2.27441H62.4897C67.9853 2.27441 72.4404 6.72949 72.4404 12.2251V124.382C72.4404 129.878 67.9853 134.333 62.4897 134.333H17.0537C11.5581 134.333 7.10303 129.878 7.10303 124.382V12.2251Z" fill="#F9FAFA"/>
</g>
<g filter="url(#filter3_i)">
<path d="M7.10303 12.2251C7.10303 6.72949 11.5581 2.27441 17.0537 2.27441H62.4897C67.9853 2.27441 72.4404 6.72949 72.4404 12.2251V124.382C72.4404 129.878 67.9853 134.333 62.4897 134.333H17.0537C11.5581 134.333 7.10303 129.878 7.10303 124.382V12.2251Z" fill="#F9FAFA"/>
</g>
<path d="M10.876 68.309C10.8755 68.3055 10.8752 68.302 10.8752 68.2984C10.8752 51.0731 10.8755 33.8479 10.876 16.6229C10.876 16.1765 10.8743 15.7297 10.8727 15.2827C10.8681 14.0386 10.8636 12.793 10.8943 11.5489L10.8943 11.5489C10.9606 8.86852 12.9774 6.49424 15.5996 5.93699C16.0696 5.83616 16.5489 5.78507 17.0296 5.78458L17.0297 5.78458L10.876 68.309ZM10.876 68.309C10.8812 68.3464 10.9133 68.3752 10.9521 68.3752H10.9528M10.876 68.309V68.2984L10.9528 68.3752M68.6698 11.6911C68.6713 11.1846 68.5996 10.6805 68.4571 10.1944L68.4571 10.1944C67.6965 7.60647 65.4842 5.86204 62.7811 5.7992L62.7794 5.87604L62.7811 5.7992C61.2739 5.76438 59.7654 5.77271 58.2583 5.78104C57.7421 5.78389 57.2261 5.78675 56.7104 5.78786C56.4475 5.78844 56.2286 5.86734 56.0704 6.01875C55.9126 6.1699 55.8231 6.3857 55.8042 6.6453C55.7956 6.76242 55.792 6.87951 55.789 6.99515C55.7886 7.01142 55.7882 7.02765 55.7878 7.04385C55.7853 7.14331 55.7829 7.24155 55.7777 7.33962L55.7777 7.33996C55.7077 8.80512 54.6505 10.0362 53.2103 10.3294L53.2099 10.3295C52.9135 10.3915 52.6149 10.3914 52.3063 10.3914L52.2796 10.3914C46.1377 10.3917 39.9958 10.3917 33.8538 10.3914C33.1829 10.3913 32.5121 10.3922 31.8414 10.3931C30.1845 10.3954 28.5281 10.3977 26.8718 10.3844C25.3763 10.3727 24.1248 9.33387 23.8025 7.87923L68.5929 11.6909M68.6698 11.6911L68.5929 11.6909M68.6698 11.6911C68.6698 11.6911 68.6698 11.691 68.6698 11.691L68.5929 11.6909M68.6698 11.6911C68.6673 15.7545 68.6675 19.8175 68.6701 23.8802C68.6701 57.357 68.6714 90.8346 68.6738 124.313C68.6738 125.158 68.631 126.002 68.3063 126.813L68.2349 126.784C68.5538 125.988 68.5969 125.156 68.5969 124.313C68.5945 90.8346 68.5933 57.357 68.5933 23.8802C68.5906 19.8175 68.5905 15.7544 68.5929 11.6909M10.9528 68.3752V68.2984H10.9521L10.9528 68.3752ZM23.4818 6.07542C23.2654 5.83138 22.9842 5.78238 22.6961 5.78312L23.7019 6.69654L23.6251 6.69798L23.7019 6.69644L23.7019 6.69647C23.6977 6.46974 23.6419 6.25626 23.4819 6.07547L23.4818 6.07542ZM63.5553 130.685L63.5414 130.609L63.5551 130.685C63.5552 130.685 63.5552 130.685 63.5553 130.685ZM16.7473 130.748C16.7474 130.748 16.7474 130.748 16.7475 130.748L16.7499 130.671L16.7473 130.748Z" stroke="#E1E1E1" stroke-width="0.153735" stroke-linejoin="round"/>
<path opacity="0.4" fill-rule="evenodd" clip-rule="evenodd" d="M35.2139 7.45654C35.2139 7.20548 35.4207 7.00176 35.6758 7.00151L41.3665 6.99609C41.6217 6.99585 41.8285 7.19918 41.8285 7.45024L41.8285 7.59836C41.8285 7.84942 41.6217 8.05314 41.3666 8.05339L35.6759 8.05881C35.4208 8.05905 35.2139 7.85572 35.2139 7.60466L35.2139 7.45654Z" fill="#C8C8C8"/>
<path opacity="0.546196" fill-rule="evenodd" clip-rule="evenodd" d="M43.3667 7.52774C43.3667 7.2351 43.6078 6.99684 43.9052 6.99656C44.2026 6.99627 44.4437 7.23407 44.4437 7.52671C44.4437 7.81934 44.2026 8.0576 43.9052 8.05789C43.6078 8.05817 43.3668 7.82037 43.3667 7.52774Z" fill="#C8C8C8"/>
<mask id="mask0" mask-type="alpha" maskUnits="userSpaceOnUse" x="10" y="5" width="59" height="126">
<path fill-rule="evenodd" clip-rule="evenodd" d="M68.6018 11.245V124.951C68.5782 125.129 68.5535 125.307 68.5312 125.486C68.5133 125.63 68.5149 125.778 68.4794 125.917C67.8855 128.25 66.4625 129.786 64.1127 130.417C63.7402 130.517 63.3549 130.569 62.9756 130.643H16.7966C16.6782 130.622 16.5606 130.596 16.4414 130.58C13.9563 130.259 12.2518 128.943 11.3681 126.594C11.0556 125.764 11.0021 124.892 11.0022 124.011C11.0051 88.3171 11.0047 52.623 11.0041 16.9289C11.0041 16.2357 10.9987 15.5425 10.9913 14.8493C10.9902 14.7425 10.9652 14.6359 10.9512 14.5292V13.2885C10.9673 13.121 10.9881 12.9538 10.9987 12.786C11.0418 12.1073 11.0194 11.4177 11.1339 10.7514C11.6009 8.03477 13.8411 5.98792 16.5933 5.86436C18.6829 5.77058 20.7796 5.82663 22.8731 5.8325C23.3871 5.83396 23.6535 6.14968 23.6799 6.67552C23.6977 7.02718 23.7013 7.38337 23.763 7.72828C24.0482 9.3233 25.38 10.4267 27.0091 10.4289C30.1133 10.433 33.2174 10.4332 36.3215 10.4335C41.7142 10.4339 47.1069 10.4335 52.4996 10.4318C52.6816 10.4317 52.8661 10.4297 53.0452 10.4017C54.7468 10.135 55.8726 8.82549 55.9002 7.09571C55.9037 6.87789 55.9258 6.65939 55.9549 6.44329C55.9841 6.22701 56.0942 6.03576 56.2935 5.95358C56.4786 5.8772 56.6905 5.83232 56.8908 5.8313C58.6315 5.82221 60.3723 5.82316 62.113 5.82776C62.7455 5.82944 63.3762 5.8506 64.0001 5.98562C66.4173 6.50883 68.2874 8.58461 68.5445 11.0399C68.5518 11.1095 68.5822 11.1767 68.6018 11.245Z" fill="white"/>
</mask>
<g mask="url(#mask0)">
<rect x="10.9458" y="5.77441" width="57.6506" height="124.833" fill="#F5F5F5"/>
<rect x="11.1001" y="10.8359" width="57.4969" height="125.755" fill="#EBEBEB"/>
<rect x="11.1001" y="10.8359" width="57.4969" height="125.755"/>
</g>
<defs>
<filter id="filter0_d" x="0.492582" y="130.95" width="78.5586" height="5.84193" filterUnits="userSpaceOnUse" color-interpolation-filters="sRGB">
<feFlood flood-opacity="0" result="BackgroundImageFix"/>
<feColorMatrix in="SourceAlpha" type="matrix" values="0 0 0 0 0 0 0 0 0 0 0 0 0 0 0 0 0 0 127 0"/>
<feOffset/>
<feGaussianBlur stdDeviation="0.92241"/>
<feColorMatrix type="matrix" values="0 0 0 0 0 0 0 0 0 0 0 0 0 0 0 0 0 0 0.08 0"/>
<feBlend mode="normal" in2="BackgroundImageFix" result="effect1_dropShadow"/>
<feBlend mode="normal" in="SourceGraphic" in2="effect1_dropShadow" result="shape"/>
</filter>
<filter id="filter1_d" x="11.8693" y="124.339" width="55.8059" height="11.377" filterUnits="userSpaceOnUse" color-interpolation-filters="sRGB">
<feFlood flood-opacity="0" result="BackgroundImageFix"/>
<feColorMatrix in="SourceAlpha" type="matrix" values="0 0 0 0 0 0 0 0 0 0 0 0 0 0 0 0 0 0 127 0"/>
<feOffset/>
<feGaussianBlur stdDeviation="0.691808"/>
<feColorMatrix type="matrix" values="0 0 0 0 0 0 0 0 0 0 0 0 0 0 0 0 0 0 0.33 0"/>
<feBlend mode="normal" in2="BackgroundImageFix" result="effect1_dropShadow"/>
<feBlend mode="normal" in="SourceGraphic" in2="effect1_dropShadow" result="shape"/>
</filter>
<filter id="filter2_d" x="4.4056" y="0.427146" width="70.7322" height="137.453" filterUnits="userSpaceOnUse" color-interpolation-filters="sRGB">
<feFlood flood-opacity="0" result="BackgroundImageFix"/>
<feColorMatrix in="SourceAlpha" type="matrix" values="0 0 0 0 0 0 0 0 0 0 0 0 0 0 0 0 0 0 127 0"/>
<feOffset dy="0.850155"/>
<feGaussianBlur stdDeviation="1.34871"/>
<feColorMatrix type="matrix" values="0 0 0 0 0 0 0 0 0 0 0 0 0 0 0 0 0 0 0.03 0"/>
<feBlend mode="normal" in2="BackgroundImageFix" result="effect1_dropShadow"/>
<feBlend mode="normal" in="SourceGraphic" in2="effect1_dropShadow" result="shape"/>
</filter>
<filter id="filter3_i" x="7.10303" y="1.46519" width="65.3374" height="132.868" filterUnits="userSpaceOnUse" color-interpolation-filters="sRGB">
<feFlood flood-opacity="0" result="BackgroundImageFix"/>
<feBlend mode="normal" in="SourceGraphic" in2="BackgroundImageFix" result="shape"/>
<feColorMatrix in="SourceAlpha" type="matrix" values="0 0 0 0 0 0 0 0 0 0 0 0 0 0 0 0 0 0 127 0" result="hardAlpha"/>
<feOffset dy="-0.809227"/>
<feGaussianBlur stdDeviation="1.35984"/>
<feComposite in2="hardAlpha" operator="arithmetic" k2="-1" k3="1"/>
<feColorMatrix type="matrix" values="0 0 0 0 0 0 0 0 0 0 0 0 0 0 0 0 0 0 0.12 0"/>
<feBlend mode="normal" in2="shape" result="effect1_innerShadow"/>
</filter>
</defs>
</svg>
