<svg width="321" height="197" viewBox="0 0 321 197" fill="none" xmlns="http://www.w3.org/2000/svg">
<rect x="0.875488" y="176.673" width="320.125" height="20.3274"/>
<rect x="0.875488" y="176.673" width="320.125" height="20.3274"/>
<rect x="0.875488" y="176.673" width="320.125" height="20.3274"/>
<path fill-rule="evenodd" clip-rule="evenodd" d="M47.5472 0.290039H273.183C278.119 0.290039 279.504 0.290039 281.628 1.0041C284.14 1.92172 286.131 3.91098 287.049 6.42169C287.763 8.54557 287.763 9.92972 287.763 14.8628C287.763 28.5252 287.763 164.64 287.763 164.64C287.763 169.573 287.763 170.957 287.049 173.081C286.131 175.592 284.14 177.581 281.628 178.499C279.504 179.213 278.119 179.213 273.183 179.213C259.514 179.213 47.5472 179.213 47.5472 179.213C42.6118 179.213 41.2267 179.213 39.1021 178.499C36.59 177.581 34.5998 175.592 33.6818 173.081C32.9673 170.957 32.9673 169.573 32.9673 164.64C32.9673 150.978 32.9673 14.8628 32.9673 14.8628C32.9673 9.92972 32.9673 8.54557 33.6818 6.42169C34.5998 3.91098 36.59 1.92172 39.1021 1.0041C41.2267 0.290039 42.6118 0.290039 47.5472 0.290039Z" fill="url(#paint0_linear)"/>
<path fill-rule="evenodd" clip-rule="evenodd" d="M48.5618 1.10591H272.167C277.058 1.10591 278.43 1.10591 280.536 1.81333C283.026 2.72241 284.998 4.69316 285.908 7.1805C286.616 9.28462 286.616 10.6559 286.616 15.5431C286.616 29.0783 286.616 163.926 286.616 163.926C286.616 168.814 286.616 170.185 285.908 172.289C284.998 174.776 283.026 176.747 280.536 177.656C278.43 178.364 277.058 178.364 272.167 178.364C258.621 178.364 48.5618 178.364 48.5618 178.364C43.6708 178.364 42.2982 178.364 40.1927 177.656C37.7032 176.747 35.7309 174.776 34.8211 172.289C34.1131 170.185 34.1131 168.814 34.1131 163.926C34.1131 150.391 34.1131 15.5431 34.1131 15.5431C34.1131 10.6559 34.1131 9.28462 34.8211 7.1805C35.7309 4.69316 37.7032 2.72241 40.1927 1.81333C42.2982 1.10591 43.6708 1.10591 48.5618 1.10591Z" stroke="#E7E7E7" stroke-width="0.351065"/>
<path fill-rule="evenodd" clip-rule="evenodd" d="M159.937 6.38437C160.458 6.38437 160.881 6.80667 160.881 7.3276C160.881 7.84853 160.458 8.27083 159.937 8.27083C159.416 8.27083 158.993 7.84853 158.993 7.3276C158.993 6.80667 159.416 6.38437 159.937 6.38437Z" fill="#F2F2F2"/>
<g filter="url(#filter0_i)">
<path fill-rule="evenodd" clip-rule="evenodd" d="M4.51819 173.263H316.371V175.005H4.51819V173.263Z" fill="white"/>
<path fill-rule="evenodd" clip-rule="evenodd" d="M4.51819 173.263H316.371V175.005H4.51819V173.263Z" fill="url(#paint1_linear)" style="mix-blend-mode:multiply"/>
</g>
<g style="mix-blend-mode:multiply" opacity="0.1">
<path fill-rule="evenodd" clip-rule="evenodd" d="M304.757 173.263H316.371V175.005H304.757V173.263Z" fill="url(#paint2_linear)"/>
</g>
<g style="mix-blend-mode:multiply" opacity="0.1">
<path fill-rule="evenodd" clip-rule="evenodd" d="M4.51823 173.263H16.1328V175.005H4.51823V173.263Z" fill="url(#paint3_linear)"/>
</g>
<path fill-rule="evenodd" clip-rule="evenodd" d="M4.51779 175.005H316.371C314.528 176.155 298.18 180.875 243.779 179.649C238.975 179.649 103.58 179.504 73.9152 179.504C39.486 179.504 25.2334 179.642 12.2249 177.136C7.67087 176.259 5.39042 175.535 4.51779 175.005Z" fill="white"/>
<path fill-rule="evenodd" clip-rule="evenodd" d="M4.51779 175.005H316.371C314.528 176.155 298.18 180.875 243.779 179.649C238.975 179.649 103.58 179.504 73.9152 179.504C39.486 179.504 25.2334 179.642 12.2249 177.136C7.67087 176.259 5.39042 175.535 4.51779 175.005Z" fill="url(#paint4_linear)" style="mix-blend-mode:multiply"/>
<path fill-rule="evenodd" clip-rule="evenodd" d="M4.51779 175.005H316.371C314.528 176.155 298.18 180.875 243.779 179.649C238.975 179.649 103.58 179.504 73.9152 179.504C39.486 179.504 25.2334 179.642 12.2249 177.136C7.67087 176.259 5.39042 175.535 4.51779 175.005Z" fill="url(#paint5_linear)" style="mix-blend-mode:multiply"/>
<path fill-rule="evenodd" clip-rule="evenodd" d="M4.51779 175.005H316.371C314.528 176.155 298.18 180.875 243.779 179.649C238.975 179.649 103.58 179.504 73.9152 179.504C39.486 179.504 25.2334 179.642 12.2249 177.136C7.67087 176.259 5.39042 175.535 4.51779 175.005Z" fill="url(#paint6_linear)" style="mix-blend-mode:multiply"/>
<path fill-rule="evenodd" clip-rule="evenodd" d="M4.51779 175.005H316.371C314.528 176.155 298.18 180.875 243.779 179.649C238.975 179.649 103.58 179.504 73.9152 179.504C39.486 179.504 25.2334 179.642 12.2249 177.136C7.67087 176.259 5.39042 175.535 4.51779 175.005Z" fill="url(#paint7_linear)" style="mix-blend-mode:multiply"/>
<path fill-rule="evenodd" clip-rule="evenodd" d="M4.51779 175.005H316.371C314.528 176.155 298.18 180.875 243.779 179.649C238.975 179.649 103.58 179.504 73.9152 179.504C39.486 179.504 25.2334 179.642 12.2249 177.136C7.67087 176.259 5.39042 175.535 4.51779 175.005Z" fill="url(#paint8_linear)"/>
<g filter="url(#filter1_i)">
<path fill-rule="evenodd" clip-rule="evenodd" d="M130.537 173.263H136.344H184.4H190.207V174.859C190.207 175.471 184.4 175.584 184.4 175.584H136.344C136.344 175.584 130.537 175.471 130.537 174.859V173.263Z" fill="white"/>
</g>
<g style="mix-blend-mode:multiply" opacity="0.07">
<path fill-rule="evenodd" clip-rule="evenodd" d="M130.536 173.263H136.344V175.585C136.344 175.585 130.536 175.471 130.536 174.859C130.536 174.247 130.536 173.263 130.536 173.263Z" fill="url(#paint9_linear)"/>
</g>
<g style="mix-blend-mode:multiply" opacity="0.07">
<path fill-rule="evenodd" clip-rule="evenodd" d="M190.207 173.263H184.4V175.585C184.4 175.585 190.207 175.471 190.207 174.859C190.207 174.247 190.207 173.263 190.207 173.263Z" fill="url(#paint10_linear)"/>
</g>
<path d="M42.4888 11.5736H42.3094V11.7529V159.128V159.307H42.4888H278.405H278.584V159.128V11.7529V11.5736H278.405H42.4888Z" stroke="#E1E1E1" stroke-width="0.358683"/>
<mask id="mask0" mask-type="alpha" maskUnits="userSpaceOnUse" x="42" y="11" width="237" height="149">
<rect x="42.4575" y="11.7891" width="235.916" height="147.375" fill="#F5F5F5"/>
</mask>
<g mask="url(#mask0)">
<rect x="42.4575" y="11.7891" width="235.916" height="147.375"/>
<rect x="42.5361" y="11.8135" width="235.799" height="147.375" fill="#C4C4C4"/>
<rect x="42.5361" y="11.8135" width="235.799" height="147.375"/>
</g>
<defs>
<filter id="filter0_i" x="4.51807" y="173.264" width="311.853" height="1.74133" filterUnits="userSpaceOnUse" color-interpolation-filters="sRGB">
<feFlood flood-opacity="0" result="BackgroundImageFix"/>
<feBlend mode="normal" in="SourceGraphic" in2="BackgroundImageFix" result="shape"/>
<feColorMatrix in="SourceAlpha" type="matrix" values="0 0 0 0 0 0 0 0 0 0 0 0 0 0 0 0 0 0 127 0" result="hardAlpha"/>
<feOffset dy="0.179342"/>
<feComposite in2="hardAlpha" operator="arithmetic" k2="-1" k3="1"/>
<feColorMatrix type="matrix" values="0 0 0 0 0 0 0 0 0 0 0 0 0 0 0 0 0 0 0.02 0"/>
<feBlend mode="normal" in2="shape" result="effect1_innerShadow"/>
</filter>
<filter id="filter1_i" x="130.537" y="173.263" width="59.6701" height="2.32177" filterUnits="userSpaceOnUse" color-interpolation-filters="sRGB">
<feFlood flood-opacity="0" result="BackgroundImageFix"/>
<feBlend mode="normal" in="SourceGraphic" in2="BackgroundImageFix" result="shape"/>
<feColorMatrix in="SourceAlpha" type="matrix" values="0 0 0 0 0 0 0 0 0 0 0 0 0 0 0 0 0 0 127 0" result="hardAlpha"/>
<feOffset dy="0.179342"/>
<feComposite in2="hardAlpha" operator="arithmetic" k2="-1" k3="1"/>
<feColorMatrix type="matrix" values="0 0 0 0 0 0 0 0 0 0 0 0 0 0 0 0 0 0 0.03 0"/>
<feBlend mode="normal" in2="shape" result="effect1_innerShadow"/>
</filter>
<linearGradient id="paint0_linear" x1="160.365" y1="-3.27716e-09" x2="160.365" y2="179.503" gradientUnits="userSpaceOnUse">
<stop offset="0.880227" stop-color="#F1F1F1"/>
<stop offset="1" stop-color="#E4E4E4"/>
</linearGradient>
<linearGradient id="paint1_linear" x1="4.37305" y1="175.15" x2="316.516" y2="175.15" gradientUnits="userSpaceOnUse">
<stop stop-opacity="0.04"/>
<stop offset="1" stop-color="white" stop-opacity="0.04"/>
</linearGradient>
<linearGradient id="paint2_linear" x1="319.459" y1="172.867" x2="304.611" y2="172.867" gradientUnits="userSpaceOnUse">
<stop/>
<stop offset="1" stop-color="white"/>
<stop offset="1" stop-color="white"/>
</linearGradient>
<linearGradient id="paint3_linear" x1="4.37305" y1="175.15" x2="16.278" y2="175.15" gradientUnits="userSpaceOnUse">
<stop/>
<stop offset="1" stop-color="white"/>
<stop offset="1" stop-color="white"/>
</linearGradient>
<linearGradient id="paint4_linear" x1="4.22754" y1="181.1" x2="316.661" y2="181.1" gradientUnits="userSpaceOnUse">
<stop stop-opacity="0.07"/>
<stop offset="1" stop-color="#EAEAEA" stop-opacity="0.07"/>
<stop offset="1" stop-color="white" stop-opacity="0.07"/>
</linearGradient>
<linearGradient id="paint5_linear" x1="4.22754" y1="181.1" x2="316.661" y2="181.1" gradientUnits="userSpaceOnUse">
<stop stop-opacity="0.07"/>
<stop offset="1" stop-color="#EAEAEA" stop-opacity="0.07"/>
<stop offset="1" stop-color="white" stop-opacity="0.07"/>
</linearGradient>
<linearGradient id="paint6_linear" x1="4.22754" y1="174.715" x2="4.22754" y2="181.1" gradientUnits="userSpaceOnUse">
<stop stop-opacity="0.07"/>
<stop offset="1" stop-color="white" stop-opacity="0.07"/>
</linearGradient>
<linearGradient id="paint7_linear" x1="4.22754" y1="174.715" x2="4.22754" y2="181.1" gradientUnits="userSpaceOnUse">
<stop stop-color="white" stop-opacity="0.05"/>
<stop offset="1" stop-opacity="0.05"/>
</linearGradient>
<linearGradient id="paint8_linear" x1="160.444" y1="174.715" x2="160.56" y2="185.205" gradientUnits="userSpaceOnUse">
<stop stop-color="#EBEBEB"/>
<stop offset="1" stop-color="#585858" stop-opacity="0"/>
</linearGradient>
<linearGradient id="paint9_linear" x1="130.246" y1="175.73" x2="136.489" y2="175.73" gradientUnits="userSpaceOnUse">
<stop/>
<stop offset="1" stop-color="white"/>
<stop offset="1" stop-color="white"/>
</linearGradient>
<linearGradient id="paint10_linear" x1="190.352" y1="172.973" x2="184.254" y2="172.973" gradientUnits="userSpaceOnUse">
<stop/>
<stop offset="1" stop-color="white"/>
<stop offset="1" stop-color="white"/>
</linearGradient>
</defs>
</svg>
